<svg width="171" height="43" viewBox="0 0 171 43" fill="none" xmlns="http://www.w3.org/2000/svg">
<g clip-path="url(#clip0_114_2163)">
<path d="M14.8695 14.7033C16.8466 14.5539 19.7721 14.0157 22.6158 12.1342C25.464 14.0185 28.3947 14.5555 30.3759 14.704C30.2842 18.3242 30.1044 20.9164 29.8174 22.8253C29.4778 25.0834 29.015 26.181 28.5405 26.8404C28.0769 27.4847 27.4606 27.9205 26.2411 28.5945C26.0483 28.7011 25.8427 28.8124 25.6251 28.9302L25.6239 28.9308C24.7852 29.3851 23.7683 29.9359 22.6159 30.6814C21.4653 29.937 20.4503 29.3868 19.6131 28.9329C19.3942 28.8143 19.1874 28.7022 18.9935 28.595C17.7759 27.9213 17.1615 27.4858 16.6994 26.8423C16.2261 26.183 15.7646 25.0852 15.4262 22.8263C15.1401 20.917 14.9611 18.3241 14.8695 14.7033Z" fill="#009FE8"/>
<path fill-rule="evenodd" clip-rule="evenodd" d="M15.2536 0H29.2653C37.1754 0 43.5877 6.41231 43.5877 14.3223V28.334C43.5877 36.244 37.1754 42.6563 29.2653 42.6563H15.2536C7.34366 42.6563 0.931351 36.244 0.931351 28.334V14.3223C0.931351 6.41231 7.34366 0 15.2536 0ZM23.9591 7.91638C23.1814 7.26677 22.0502 7.26677 21.2724 7.91638C18.0718 10.5896 14.4203 10.5717 12.9324 10.5644C12.8607 10.564 12.7941 10.5637 12.7328 10.5637C12.1715 10.5637 11.6336 10.7888 11.2397 11.1887C10.8459 11.5886 10.6288 12.1297 10.6373 12.691C10.7092 17.4572 10.8995 20.9003 11.2811 23.4474C11.6623 25.9917 12.2613 27.847 13.2947 29.2865C14.3393 30.7417 15.6778 31.5506 16.9646 32.2625C17.1936 32.3891 17.4246 32.5146 17.6592 32.642C18.7731 33.2469 19.9656 33.8945 21.3942 34.9194C22.1244 35.4431 23.1072 35.4431 23.8373 34.9194C25.2673 33.8936 26.4613 33.2457 27.5771 32.6402C27.8104 32.5137 28.0404 32.3888 28.2684 32.2629C29.556 31.5513 30.8961 30.7429 31.9426 29.2884C32.9783 27.849 33.5794 25.9936 33.9621 23.4485C34.3452 20.9008 34.5363 17.4574 34.6081 12.691C34.6166 12.1297 34.3995 11.5886 34.0057 11.1887C33.6118 10.7888 33.074 10.5637 32.5127 10.5637C32.4507 10.5637 32.3834 10.564 32.3111 10.5644C30.8109 10.5716 27.1596 10.5894 23.9591 7.91638Z" fill="#009FE8"/>
<path d="M57.8962 17.1729H53.2656V14.4438H65.8756V17.1729H61.2449V28.9151H57.8962V17.1729ZM69.0481 19.2608C69.4337 18.7232 69.9508 18.3165 70.5982 18.0408C71.2598 17.7655 72.0174 17.6274 72.8719 17.6274V20.6046C72.5145 20.5769 72.2732 20.5631 72.1488 20.5631C71.2252 20.5631 70.5021 20.8249 69.9781 21.3487C69.4543 21.8586 69.1924 22.6304 69.1924 23.664V28.9151H65.9676V17.7928H69.0481V19.2608ZM84.8353 17.7928V28.9151H81.775V27.5918C81.3478 28.074 80.8383 28.4463 80.2452 28.7082C79.6527 28.9562 79.0119 29.0804 78.3227 29.0804C76.862 29.0804 75.7048 28.6599 74.8503 27.8193C73.9959 26.9787 73.5687 25.7314 73.5687 24.0774V17.7928H76.7929V23.602C76.7929 25.3935 77.5443 26.2896 79.0465 26.2896C79.818 26.2896 80.4387 26.0415 80.9074 25.545C81.3754 25.0352 81.6098 24.2843 81.6098 23.2918V17.7928H84.8353ZM90.3242 29.0804C89.4006 29.0804 88.4978 28.97 87.6164 28.7497C86.7336 28.5151 86.0313 28.2259 85.5073 27.8814L86.5822 25.5661C87.0786 25.8829 87.6779 26.1447 88.381 26.3512C89.084 26.5443 89.7725 26.6408 90.4479 26.6408C91.8125 26.6408 92.4948 26.3035 92.4948 25.6277C92.4948 25.3109 92.3082 25.0834 91.937 24.9458C91.5644 24.8081 90.9927 24.6906 90.2205 24.594C89.3114 24.4564 88.56 24.2978 87.9676 24.119C87.3745 23.9398 86.8581 23.6225 86.417 23.168C85.9898 22.713 85.7762 22.0655 85.7762 21.2245C85.7762 20.5219 85.976 19.9016 86.3755 19.364C86.7889 18.8126 87.3814 18.3854 88.1535 18.0824C88.9388 17.7794 89.8624 17.6274 90.9235 17.6274C91.7095 17.6274 92.4879 17.7172 93.2594 17.8965C94.0454 18.0618 94.6931 18.296 95.2033 18.599L94.1277 20.8938C93.1495 20.3427 92.0814 20.067 90.9235 20.067C90.2343 20.067 89.7179 20.1636 89.373 20.3562C89.0287 20.5492 88.8566 20.7973 88.8566 21.1007C88.8566 21.4452 89.0425 21.6861 89.4144 21.8242C89.7864 21.9618 90.3795 22.0928 91.1924 22.217C92.1022 22.3685 92.846 22.5339 93.4246 22.7131C94.0039 22.8784 94.5065 23.1886 94.9337 23.6435C95.3609 24.098 95.5745 24.7322 95.5745 25.545C95.5745 26.2341 95.3685 26.8477 94.9551 27.3849C94.5411 27.9225 93.9348 28.343 93.1357 28.646C92.3504 28.9356 91.413 29.0804 90.3242 29.0804ZM103.498 28.3775C103.181 28.6116 102.788 28.7909 102.319 28.9151C101.865 29.025 101.382 29.0804 100.873 29.0804C99.5495 29.0804 98.5229 28.7426 97.7922 28.0673C97.0753 27.392 96.7172 26.3995 96.7172 25.0905V20.5219H95.0015V18.0408H96.7172V15.333H99.9421V18.0408H102.712V20.5219H99.9421V25.049C99.9421 25.5178 100.06 25.8829 100.293 26.1448C100.541 26.3928 100.886 26.5171 101.327 26.5171C101.837 26.5171 102.271 26.3789 102.63 26.1032L103.498 28.3775ZM130.781 14.4438L126.047 28.9151H122.451L119.266 19.116L115.979 28.9151H112.403L107.649 14.4438H111.122L114.388 24.6151L117.799 14.4438H120.899L124.207 24.6977L127.577 14.4438H130.781ZM134.841 17.6274C136.564 17.6274 137.887 18.0408 138.811 18.868C139.734 19.6809 140.195 20.9143 140.195 22.5683V28.9151H137.177V27.5297C136.572 28.5634 135.441 29.0804 133.787 29.0804C132.933 29.0804 132.189 28.9356 131.554 28.646C130.934 28.3569 130.458 27.957 130.128 27.4471C129.797 26.9371 129.632 26.3584 129.632 25.7104C129.632 24.6772 130.018 23.8638 130.79 23.2713C131.575 22.6787 132.781 22.3824 134.407 22.3824H136.971C136.971 21.6794 136.757 21.1418 136.33 20.77C135.902 20.3839 135.262 20.1908 134.407 20.1908C133.815 20.1908 133.229 20.2873 132.65 20.4804C132.085 20.6596 131.603 20.9076 131.203 21.2245L130.045 18.9712C130.651 18.544 131.375 18.2133 132.216 17.9791C133.07 17.7445 133.946 17.6274 134.841 17.6274ZM134.593 26.9094C135.145 26.9094 135.634 26.7856 136.061 26.5376C136.489 26.2757 136.791 25.8968 136.971 25.4007V24.2633H134.758C133.436 24.2633 132.774 24.6977 132.774 25.5661C132.774 25.9795 132.933 26.3101 133.249 26.5581C133.58 26.7923 134.028 26.9094 134.593 26.9094ZM141.874 13.5758H145.099V28.9151H141.874V13.5758ZM146.852 13.5758H150.077V28.9151H146.852V13.5758ZM162.724 23.3951C162.724 23.4366 162.704 23.7262 162.661 24.2633H154.248C154.4 24.9525 154.758 25.4968 155.323 25.8968C155.888 26.2963 156.591 26.4961 157.432 26.4961C158.01 26.4961 158.521 26.4134 158.962 26.248C159.416 26.0688 159.837 25.7935 160.222 25.4212L161.938 27.2817C160.891 28.4807 159.361 29.0804 157.349 29.0804C156.095 29.0804 154.985 28.8391 154.02 28.3569C153.056 27.8604 152.311 27.1784 151.788 26.3101C151.264 25.4418 151.002 24.4564 151.002 23.3539C151.002 22.2653 151.257 21.2866 151.767 20.4183C152.291 19.5366 153.001 18.8541 153.897 18.3719C154.806 17.8755 155.819 17.6274 156.936 17.6274C158.024 17.6274 159.01 17.862 159.892 18.3304C160.774 18.7992 161.463 19.4744 161.959 20.3562C162.469 21.2245 162.724 22.2376 162.724 23.3951ZM156.956 20.067C156.226 20.067 155.612 20.2735 155.117 20.6873C154.62 21.1007 154.317 21.6655 154.206 22.3824H159.685C159.575 21.6794 159.271 21.1212 158.775 20.7079C158.279 20.2806 157.672 20.067 156.956 20.067ZM170.804 28.3775C170.487 28.6116 170.094 28.7909 169.626 28.9151C169.171 29.025 168.689 29.0804 168.179 29.0804C166.856 29.0804 165.829 28.7426 165.098 28.0673C164.381 27.392 164.023 26.3995 164.023 25.0905V20.5219H162.308V18.0408H164.023V15.333H167.248V18.0408H170.019V20.5219H167.248V25.049C167.248 25.5178 167.365 25.8829 167.599 26.1448C167.848 26.3928 168.192 26.5171 168.634 26.5171C169.143 26.5171 169.577 26.3789 169.936 26.1032L170.804 28.3775Z" fill="white"/>
</g>
<defs>
<clipPath id="clip0_114_2163">
<rect width="170.057" height="42.86" fill="white" transform="translate(0.931351)"/>
</clipPath>
</defs>
</svg>
