<svg width="155" height="29" viewBox="0 0 155 29" fill="none" xmlns="http://www.w3.org/2000/svg">
<g clip-path="url(#clip0_114_2159)">
<path d="M31.3223 8.3438C25.6733 8.3438 21.3019 12.5806 21.3019 18.2969C21.3019 24.0132 25.606 28.25 31.3223 28.25C37.0386 28.25 41.4099 23.946 41.4099 18.2969C41.4099 12.6478 37.1058 8.3438 31.3223 8.3438ZM31.3895 24.0804C28.1615 24.0804 25.875 21.5922 25.875 18.2297C25.875 14.8671 28.1615 12.3788 31.3895 12.3788C34.6176 12.3788 36.9713 14.8671 36.9713 18.2297C36.9713 21.5922 34.5503 24.0804 31.3895 24.0804ZM42.6204 12.6478H45.3777V27.8465H49.8835V8.68004H42.6204V12.6478ZM10.0711 12.4461C12.4248 12.4461 14.3079 13.8583 14.9804 16.0104H19.6879C18.8137 11.4373 15.0476 8.27656 10.0711 8.27656C4.48929 8.3438 0.117996 12.5806 0.117996 18.2969C0.117996 24.0132 4.42204 28.25 10.1383 28.25C14.9804 28.25 18.8137 25.1564 19.6879 20.5162H14.9804C14.3079 22.6682 12.4248 24.1477 10.1383 24.1477C6.91031 24.1477 4.62379 21.6594 4.62379 18.2969C4.62379 14.9343 6.84306 12.4461 10.0711 12.4461ZM127.424 16.4138L124.128 15.9431C122.581 15.7414 121.438 15.2034 121.438 13.9929C121.438 12.6478 122.918 11.9753 124.868 11.9753C127.02 11.9753 128.432 12.9168 128.701 14.3963H133.005C132.534 10.5631 129.575 8.27656 125.002 8.27656C120.295 8.27656 117.134 10.6975 117.134 14.1273C117.134 17.3554 119.152 19.3057 123.321 19.8437L126.617 20.3144C128.231 20.5162 129.105 21.1887 129.105 22.3319C129.105 23.8787 127.558 24.484 125.406 24.484C122.783 24.484 121.304 23.4079 121.035 21.7939H116.663C117.067 25.56 120.026 28.1827 125.339 28.1827C130.181 28.1827 133.476 25.9635 133.476 22.1302C133.476 18.7677 131.122 17.0192 127.424 16.4138ZM47.6642 0.811737C46.0502 0.811737 44.7724 2.02225 44.7724 3.63626C44.7724 5.25028 45.9829 6.46079 47.6642 6.46079C49.2782 6.46079 50.556 5.25028 50.556 3.63626C50.556 2.02225 49.2782 0.811737 47.6642 0.811737ZM113.166 15.2706C113.166 11.1011 110.611 8.3438 105.298 8.3438C100.254 8.3438 97.4295 10.8993 96.8241 14.7999H101.263C101.465 13.2531 102.676 12.0426 105.231 12.0426C107.517 12.0426 108.593 13.0514 108.593 14.2619C108.593 15.8759 106.576 16.2794 104.02 16.5484C100.59 16.9519 96.3536 18.0951 96.3536 22.5337C96.3536 25.9635 98.9089 28.1827 103.011 28.1827C106.24 28.1827 108.19 26.8377 109.199 24.753C109.333 26.6359 110.745 27.8465 112.763 27.8465H115.386V23.8787H113.166V15.2706ZM108.728 20.0454C108.728 22.6009 106.509 24.484 103.751 24.484C102.07 24.484 100.658 23.8114 100.658 22.2647C100.658 20.3816 102.944 19.8437 105.029 19.6419C107.047 19.4401 108.123 19.0367 108.728 18.1624V20.0454ZM85.0557 8.3438C82.5674 8.3438 80.4827 9.35259 79.0033 11.1011V0.609985H74.5643V27.8465H78.9355V25.3582C80.415 27.174 82.5674 28.25 85.0557 28.25C90.4358 28.25 94.4706 24.0132 94.4706 18.2969C94.4706 12.5806 90.3681 8.3438 85.0557 8.3438ZM84.3834 24.0804C81.155 24.0804 78.8685 21.5922 78.8685 18.2297C78.8685 14.8671 81.2221 12.3788 84.4504 12.3788C87.6781 12.3788 89.9646 14.8671 89.9646 18.2297C89.9646 21.6594 87.611 24.0804 84.3834 24.0804ZM63.8716 8.3438C60.9798 8.3438 59.0968 9.55429 57.9535 11.1683V8.68004H53.515V27.8465H57.9535V17.4226C57.9535 14.4636 59.8366 12.4461 62.5938 12.4461C65.1493 12.4461 66.7634 14.2619 66.7634 16.8846V27.8465H71.2019V16.5484C71.2019 11.7063 68.7136 8.3438 63.8716 8.3438ZM154.727 17.6916C154.727 12.1771 150.692 8.3438 145.312 8.3438C139.596 8.3438 135.359 12.6478 135.359 18.2969C135.359 24.2822 139.864 28.25 145.379 28.25C150.019 28.25 153.651 25.4927 154.592 21.5922H149.952C149.28 23.2735 147.666 24.2822 145.446 24.2822C142.555 24.2822 140.403 22.5337 139.932 19.3729H154.727V17.6916ZM140.201 16.2121C140.941 13.5221 142.891 12.2444 145.245 12.2444C147.801 12.2444 149.684 13.6566 150.154 16.2121H140.201Z" fill="#0052FF"/>
</g>
<defs>
<clipPath id="clip0_114_2159">
<rect width="154.784" height="27.64" fill="white" transform="translate(0.117996 0.609985)"/>
</clipPath>
</defs>
</svg>
