<svg width="114" height="29" viewBox="0 0 114 29" fill="none" xmlns="http://www.w3.org/2000/svg">
<g clip-path="url(#clip0_114_2147)">
<path d="M12.2121 18.0093C13.3175 18.0272 15.7224 18.0661 15.7394 16.5233C15.7562 14.9268 13.3655 14.9759 12.2422 14.9989C12.1266 15.0013 12.0244 15.0034 11.9397 15.0034V18.0062C12.0172 18.0062 12.109 18.0076 12.2121 18.0093Z" fill="#009FE8"/>
<path d="M12.1221 13.6368C13.013 13.6669 15.1104 13.7377 15.1277 12.2972C15.1445 10.8361 13.1526 10.8814 12.213 10.9029C12.1156 10.9051 12.0295 10.9071 11.9582 10.9071V13.6318C12.0066 13.633 12.0615 13.6348 12.1221 13.6368Z" fill="#009FE8"/>
<path fill-rule="evenodd" clip-rule="evenodd" d="M24.7477 9.75784C24.7477 24.5492 12.9035 28.5714 12.9035 28.5714C12.9035 28.5714 1.05931 24.5492 1.05931 9.75784V4.43817C1.05931 3.86357 1.50416 3.38165 2.07877 3.34458C4.22888 3.2519 9.32617 2.80704 12.9035 0.897888C16.4808 2.80704 21.5781 3.2519 23.7282 3.34458C24.3028 3.38165 24.7477 3.86357 24.7477 4.43817V9.75784ZM14.4048 9.36861C16.1657 9.5354 17.5374 10.0915 17.6856 11.7041C17.7969 12.8904 17.2964 13.5947 16.4994 13.9654C17.7969 14.2805 18.5939 15.0775 18.427 16.8014C18.2046 18.9515 16.6106 19.526 14.3122 19.6372V21.8986H12.9406V19.6743C12.5884 19.6743 12.2177 19.6743 11.847 19.6558V21.8986H10.4939V19.6372C10.1788 19.6187 8.01009 19.6372 8.01009 19.6372L8.02869 17.9876H9.56713V10.7773H7.82478V9.35008C7.82478 9.35008 10.2715 9.33149 10.568 9.33149L10.5495 7.08873H11.9211V9.29444H13.0333V7.10726H14.4048V9.36861Z" fill="#009FE8"/>
<path d="M48.4531 19.5725C48.4531 20.7588 48.2121 21.7411 47.7488 22.5382C47.2854 23.3351 46.6551 23.9839 45.8952 24.4658C45.1167 24.9478 44.2455 25.2999 43.2632 25.5224C42.2808 25.7262 41.2613 25.8374 40.2419 25.8374H31.66V4.28067H40.2419C41.076 4.28067 41.9286 4.37334 42.7998 4.54016C43.6709 4.70699 44.468 5.00355 45.1723 5.42987C45.8767 5.85619 46.4513 6.41225 46.9147 7.11661C47.3595 7.82092 47.5819 8.72919 47.5819 9.82276C47.5819 11.0276 47.2669 12.01 46.5996 12.7884C45.9508 13.567 45.0982 14.1416 44.0416 14.4752V14.5308C44.6533 14.642 45.2279 14.8273 45.7655 15.1054C46.303 15.3834 46.7664 15.7356 47.1556 16.1619C47.5449 16.5882 47.86 17.0887 48.101 17.6633C48.3233 18.2194 48.4531 18.8495 48.4531 19.5725ZM42.5403 10.5271C42.5403 9.80424 42.2622 9.26675 41.7062 8.9331C41.1501 8.59944 40.316 8.43258 39.2225 8.43258H36.6645V12.8811H39.4634C40.4458 12.8811 41.1872 12.6772 41.7247 12.288C42.2808 11.8802 42.5403 11.2871 42.5403 10.5271ZM43.2447 19.072C43.2447 18.1823 42.911 17.5521 42.2437 17.2185C41.5764 16.8663 40.6867 16.6994 39.556 16.6994H36.6645V21.6299H39.5932C40.0009 21.6299 40.4272 21.5929 40.8535 21.5187C41.2799 21.4445 41.6876 21.3148 42.0398 21.148C42.392 20.9626 42.6886 20.7031 42.911 20.3695C43.1334 20.0358 43.2447 19.6095 43.2447 19.072Z" fill="white"/>
<path d="M55.3668 5.83765C55.3668 6.2269 55.2927 6.57908 55.1444 6.91272C54.9961 7.24639 54.7922 7.54292 54.5328 7.78388C54.2733 8.02484 53.9767 8.21022 53.6245 8.35849C53.2723 8.50676 52.9016 8.5624 52.5124 8.5624C51.6968 8.5624 51.0295 8.30285 50.4735 7.74683C49.9174 7.20927 49.6579 6.56055 49.6579 5.81912C49.6579 5.44842 49.732 5.09624 49.8804 4.7626C50.0286 4.42896 50.2325 4.13239 50.492 3.89143C50.7515 3.65046 51.0666 3.44658 51.4002 3.29829C51.7524 3.15001 52.1232 3.07587 52.5309 3.07587C52.9201 3.07587 53.2908 3.15001 53.643 3.27976C53.9952 3.42804 54.3103 3.6134 54.5513 3.85436C54.8108 4.09532 55.0147 4.39189 55.1629 4.72552C55.2927 5.0777 55.3668 5.44841 55.3668 5.83765ZM50.0101 10.6754H55.0147V25.8374H50.0101V10.6754Z" fill="white"/>
<path d="M64.06 14.3825V20.1841C64.06 20.907 64.1897 21.426 64.4678 21.7967C64.7458 22.1489 65.2277 22.3342 65.9506 22.3342C66.1916 22.3342 66.451 22.3157 66.7291 22.2786C67.0071 22.2416 67.2296 22.186 67.4149 22.0933L67.4705 25.7448C67.1183 25.8745 66.692 25.9672 66.1545 26.0599C65.6169 26.1525 65.098 26.1896 64.5604 26.1896C63.541 26.1896 62.6884 26.0599 62.0026 25.8004C61.3167 25.5409 60.7606 25.1887 60.3344 24.7068C59.9266 24.2249 59.6115 23.6688 59.4261 23.0015C59.2408 22.3342 59.1481 21.6114 59.1481 20.7958V14.3825H56.757V10.6754H59.1666V6.69028H64.0785V10.6754H67.6373V14.3825H64.06Z" fill="white"/>
<path d="M85.7092 25.8745C84.3005 26.2267 82.7625 26.3935 81.0939 26.3935C79.37 26.3935 77.7761 26.1155 76.3307 25.5779C74.8847 25.0219 73.6246 24.2619 72.5864 23.261C71.5482 22.2601 70.7146 21.0738 70.1395 19.6836C69.5464 18.2935 69.2499 16.7365 69.2499 15.0312C69.2499 13.3075 69.5464 11.7505 70.1581 10.3418C70.7512 8.93308 71.5855 7.74681 72.6417 6.76441C73.6985 5.78203 74.9407 5.02208 76.3487 4.50309C77.7761 3.98409 79.296 3.70605 80.946 3.70605C82.6512 3.70605 84.2265 3.96555 85.6912 4.48455C87.1552 5.00354 88.3413 5.68935 89.2496 6.57906L85.9691 10.3232C85.4686 9.73006 84.7829 9.24814 83.9673 8.87744C83.133 8.50674 82.1874 8.32142 81.1312 8.32142C80.223 8.32142 79.37 8.48822 78.6104 8.82187C77.832 9.15552 77.1643 9.61891 76.6086 10.2306C76.0342 10.8237 75.589 11.5466 75.2925 12.3622C74.9773 13.1777 74.8107 14.0859 74.8107 15.0498C74.8107 16.0507 74.9586 16.9589 75.2372 17.7931C75.5151 18.6272 75.9416 19.35 76.4973 19.9432C77.053 20.5363 77.7394 21.0182 78.573 21.3519C79.3887 21.6855 80.3343 21.8523 81.3904 21.8523C82.0022 21.8523 82.5773 21.8152 83.133 21.7226C83.6708 21.6299 84.1899 21.4816 84.653 21.2777V17.3482H80.5382V13.1036H89.4349V24.5214C88.3413 25.0775 87.1179 25.5224 85.7092 25.8745Z" fill="white"/>
<path d="M108.175 18.2008C108.175 19.4427 107.952 20.5548 107.507 21.5743C107.062 22.5752 106.451 23.4279 105.672 24.1322C104.894 24.8365 104.004 25.3741 102.985 25.7633C101.965 26.1525 100.89 26.3379 99.7223 26.3379C98.5914 26.3379 97.4979 26.1525 96.4784 25.7633C95.4595 25.3741 94.5513 24.8365 93.7909 24.1322C93.0313 23.4279 92.4195 22.5752 91.9744 21.5743C91.5299 20.5733 91.3074 19.4427 91.3074 18.2008C91.3074 16.959 91.5299 15.8469 91.9744 14.8459C92.4195 13.845 93.0313 13.0109 93.7909 12.3251C94.5513 11.6393 95.4409 11.1017 96.4784 10.7495C97.4979 10.3788 98.5914 10.1935 99.7223 10.1935C100.872 10.1935 101.965 10.3788 102.985 10.7495C104.004 11.1203 104.894 11.6393 105.672 12.3251C106.451 13.0109 107.044 13.8635 107.507 14.8459C107.952 15.8469 108.175 16.959 108.175 18.2008ZM103.374 18.2008C103.374 17.7189 103.3 17.237 103.133 16.7736C102.966 16.3102 102.744 15.9024 102.428 15.5317C102.132 15.1796 101.743 14.883 101.298 14.6605C100.853 14.4382 100.334 14.3269 99.7409 14.3269C99.1479 14.3269 98.6288 14.4382 98.1843 14.6605C97.7392 14.883 97.3687 15.1796 97.0721 15.5317C96.7756 15.8839 96.553 16.2917 96.4044 16.7736C96.2565 17.237 96.1818 17.7189 96.1818 18.2008C96.1818 18.6827 96.2565 19.1647 96.4044 19.628C96.553 20.0914 96.7756 20.5178 97.0901 20.8885C97.3866 21.2592 97.7765 21.5743 98.2209 21.7967C98.6661 22.0192 99.1852 22.1304 99.7783 22.1304C100.371 22.1304 100.89 22.0192 101.335 21.7967C101.78 21.5743 102.151 21.2777 102.466 20.8885C102.762 20.5178 103.003 20.0914 103.151 19.628C103.3 19.1647 103.374 18.6827 103.374 18.2008Z" fill="white"/>
<path d="M110.714 22.8718C111.66 22.8718 112.457 23.6132 112.457 24.5956C112.457 25.5965 111.641 26.3379 110.714 26.3379C109.768 26.3379 108.953 25.5965 108.953 24.5956C108.953 23.5947 109.75 22.8718 110.714 22.8718ZM110.714 23.1499C109.917 23.1499 109.287 23.7801 109.287 24.5956C109.287 25.4482 109.917 26.0414 110.714 26.0414C111.511 26.0414 112.123 25.4297 112.123 24.5956C112.123 23.7615 111.492 23.1499 110.714 23.1499ZM110.344 25.5965H110.028V23.5947H110.788C111.27 23.5947 111.492 23.7801 111.492 24.1693C111.492 24.5215 111.27 24.6883 110.973 24.7254L111.548 25.5965H111.214L110.677 24.7254H110.325V25.5965H110.344ZM110.344 24.4844H110.714C111.085 24.4844 111.214 24.3732 111.214 24.1508C111.214 23.9654 111.122 23.8542 110.769 23.8542H110.362V24.4844H110.344Z" fill="white"/>
</g>
<defs>
<clipPath id="clip0_114_2147">
<rect width="112.669" height="28.34" fill="white" transform="translate(0.410614 0.26001)"/>
</clipPath>
</defs>
</svg>
