<svg width="176" height="35" viewBox="0 0 176 35" fill="none" xmlns="http://www.w3.org/2000/svg">
<g clip-path="url(#clip0_114_2134)">
<path fill-rule="evenodd" clip-rule="evenodd" d="M1.7999 11.9723L0.634186 6.24968L2.43602 0.950958L13.7753 5.19L23.101 5.18994L34.3356 1.02899L34.4402 0.950958L34.452 0.985857L34.5463 0.950958L34.4614 1.01334L36.2418 6.24968L35.076 11.9723L35.9238 12.5022L34.7581 13.35L35.6059 13.9858L34.4402 15.0456L35.182 15.4695L33.5922 17.377L36.0295 24.9012H29.565L27.3389 24.9555L29.4592 25.0072L25.8407 30.3832L25.8562 30.518L21.5113 32.5313V31.2596L21.0873 28.1865L25.1337 25.0738L25.1172 24.928L25.1146 25.0072L21.0307 28.1487L21.0873 28.1865L21.4052 31.2598L21.0873 30.9418H15.7886L15.6108 31.1195L15.5939 31.2427L15.7889 31.0477H21.0876L21.4055 31.3656V32.6373L25.8562 30.518L24.3728 31.7895L21.1936 33.909H15.7889L12.7157 31.7895L11.1255 30.5179L15.471 32.6373V32.5868L11.1255 30.5179L11.7519 25.0937L11.7418 25.0739L11.1255 30.5179L3.1775 32.7434L0.952038 25.0072L7.41648 24.9012L7.48537 25.0055L9.58966 24.9542L7.41648 24.9012H0.952038L3.36475 17.4532L1.7999 15.5755L2.54172 15.0456L1.37601 13.9858L2.2238 13.35L1.05808 12.5022L1.7999 11.9723ZM8.4766 18.5428L16.2064 18.8562L16.212 18.9624L8.53126 18.651L8.4766 18.5428ZM20.3452 21.5101V27.7455L20.5577 18.9672L21.2995 22.9932L21.3999 22.9639L21.4231 22.9568L25.2205 21.828L25.1181 24.9013L25.2236 24.9039L25.3261 21.8279L22.5712 20.5563L22.552 20.5964L22.465 20.5562L21.3759 22.8335L20.6636 18.9667L28.3984 18.6532L28.5053 18.5427L26.284 15.2636L28.3997 18.6488L20.5577 18.9672L20.5566 18.9735L20.3452 21.5101ZM11.7582 25.0071L11.7615 25.0071L11.759 25.0315L11.7582 25.0071ZM11.7589 24.9226L11.7615 25.0071L11.758 25.0004L11.7562 24.9465L11.7589 24.9226ZM8.58938 18.7653L8.58544 18.7577L11.6558 21.828L11.7582 24.9013L11.7547 24.9014L11.6558 21.934L8.58938 18.7653ZM11.6558 21.828L14.4111 20.5562L15.5768 22.9937L11.6558 21.828ZM21.1969 10.7608L27.4688 6.15181L21.2399 10.7988L21.1969 10.7608ZM15.8946 28.1866L11.1278 30.517L15.8718 28.3512L15.8946 28.1866Z" fill="#F5841F"/>
<path d="M25.8562 30.518L29.565 24.9012L36.0294 25.0072L33.804 32.7433L25.8562 30.518Z" fill="#F5841F"/>
<path d="M55.0808 9.32292H52.8554C52.8554 9.32292 52.7494 9.32292 52.7494 9.42892L50.8419 15.6814C50.8419 15.7874 50.7359 15.7874 50.6299 15.6814L48.7224 9.42892C48.7224 9.42892 48.7224 9.32292 48.6164 9.32292H45.3312C45.3312 9.32292 45.2253 9.32292 45.2253 9.42892V25.3251C45.2253 25.3251 45.2253 25.431 45.3312 25.431H47.6627C47.6627 25.431 47.7687 25.431 47.7687 25.3251V13.138C47.7687 13.0321 47.8746 13.0321 47.9806 13.138L49.8882 19.3905L49.9941 19.8145C49.9941 19.8145 49.9941 19.9204 50.1001 19.9204H51.9016C51.9016 19.9204 52.0076 19.9204 52.0076 19.8145L52.1136 19.3905L54.0211 13.138C54.0211 13.0321 54.2331 13.0321 54.2331 13.138V25.2191C54.2331 25.2191 54.2331 25.3251 54.3391 25.3251H56.6705C56.6705 25.3251 56.7765 25.3251 56.7765 25.2191V9.32292C56.7765 9.32292 56.7765 9.21698 56.6705 9.21698H55.0808V9.32292Z" fill="white"/>
<path d="M64.7423 22.8876V18.0128C64.7423 18.0128 64.7422 17.9069 64.8482 17.9069H70.9945C70.9945 17.9069 71.1009 17.9069 71.1009 17.8009V15.7874C71.1009 15.7874 71.1009 15.6814 70.9945 15.6814H64.8482C64.8482 15.6814 64.7423 15.6814 64.7423 15.5755V11.3365C64.7423 11.3365 64.7422 11.2305 64.8482 11.2305H71.8424C71.8424 11.2305 71.9488 11.2305 71.9488 11.1245V9.32292C71.9488 9.32292 71.9488 9.21698 71.8424 9.21698H62.4108C62.4108 9.21698 62.3048 9.21698 62.3048 9.32292V25.0071C62.3048 25.0071 62.3048 25.1131 62.4108 25.1131H72.0545C72.0545 25.1131 72.1602 25.1132 72.1602 25.0071V22.8876C72.1602 22.8876 72.1602 22.7817 72.0545 22.7817L64.7423 22.8876Z" fill="white"/>
<path d="M88.6043 9.21698H77.795C77.795 9.21698 77.6886 9.21698 77.6886 9.32292V11.3365C77.6886 11.3365 77.6886 11.4424 77.795 11.4424H82.0338V25.2191C82.0338 25.2191 82.0338 25.3251 82.1396 25.3251H84.4711C84.4711 25.3251 84.5769 25.3251 84.5769 25.2191V11.4424H88.8164C88.8164 11.4424 88.9221 11.4424 88.9221 11.3365L88.6043 9.21698Z" fill="white"/>
<path d="M104.2 25.3251H106.32C106.426 25.3251 106.426 25.2191 106.426 25.2191L102.08 9.32292C102.08 9.32292 102.08 9.21698 101.975 9.21698H98.9015C98.9015 9.21698 98.7951 9.21698 98.7951 9.32292L94.4505 25.2191C94.4505 25.3251 94.4505 25.3251 94.5562 25.3251H96.6756C96.6756 25.3251 96.782 25.3251 96.782 25.2191L98.0536 20.5562C98.0536 20.5562 98.0536 20.4503 98.1593 20.4503H102.822C102.822 20.4503 102.928 20.4503 102.928 20.5562L104.2 25.3251C104.094 25.3251 104.094 25.3251 104.2 25.3251ZM98.6893 18.3308L100.385 12.1842C100.385 12.0783 100.491 12.0783 100.597 12.1842L102.292 18.3308C102.292 18.4367 102.292 18.4367 102.187 18.4367H98.7951C98.6893 18.4367 98.6893 18.3308 98.6893 18.3308Z" fill="white"/>
<path d="M119.69 9.32292C119.584 9.32292 119.584 9.32292 119.69 9.32292L117.676 15.5755C117.676 15.6814 117.571 15.6814 117.464 15.5755L115.557 9.32292C115.557 9.32292 115.557 9.21698 115.451 9.21698H112.06C112.06 9.21698 111.954 9.21698 111.954 9.32292V25.2191C111.954 25.2191 111.954 25.3251 112.06 25.3251H114.391C114.391 25.3251 114.497 25.3251 114.497 25.2191V13.138C114.497 13.0321 114.603 13.0321 114.709 13.138L116.617 19.3905L116.723 19.8144C116.723 19.8144 116.723 19.9204 116.828 19.9204H118.63C118.63 19.9204 118.736 19.9204 118.736 19.8144L118.842 19.3905L120.749 13.138C120.749 13.0321 120.962 13.0321 120.962 13.138V25.2191C120.962 25.2191 120.962 25.3251 121.067 25.3251H123.399C123.399 25.3251 123.505 25.3251 123.505 25.2191V9.32292C123.505 9.32292 123.505 9.21698 123.399 9.21698H119.69V9.32292Z" fill="white"/>
<path d="M138.783 25.3251H140.902C141.009 25.3251 141.009 25.2191 141.009 25.2191L136.663 9.32292C136.663 9.32292 136.663 9.21698 136.558 9.21698H133.485C133.485 9.21698 133.378 9.21698 133.378 9.32292L129.034 25.2191C129.034 25.3251 129.034 25.3251 129.139 25.3251H131.259C131.259 25.3251 131.365 25.3251 131.365 25.2191L132.637 20.5562C132.637 20.5562 132.637 20.4503 132.742 20.4503H137.406C137.406 20.4503 137.511 20.4503 137.511 20.5562L138.783 25.3251ZM133.378 18.3308L135.074 12.1842C135.074 12.0783 135.18 12.0783 135.286 12.1842L136.981 18.3308C136.981 18.4367 136.981 18.4367 136.876 18.4367H133.485C133.378 18.4367 133.378 18.3308 133.378 18.3308Z" fill="white"/>
<path d="M154.803 17.589C153.849 16.9531 152.79 16.5292 151.835 15.9993C151.2 15.6814 150.564 15.3635 149.928 14.8336C148.974 14.0918 149.187 12.5022 150.14 11.8664C151.517 10.9126 153.849 11.4424 154.167 13.35C154.167 13.35 154.167 13.456 154.273 13.456H156.393C156.498 13.456 156.498 13.456 156.498 13.35C156.393 12.0783 155.863 10.9126 154.909 10.2767C154.061 9.64087 153.001 9.21698 151.942 9.21698C146.325 9.21698 145.795 15.1515 148.868 16.9531C149.187 17.1651 152.153 18.6487 153.213 19.2846C154.273 19.9204 154.591 21.0861 154.167 22.0399C153.743 22.8877 152.683 23.5235 151.624 23.4175C150.458 23.3116 149.504 22.6757 149.187 21.7219C149.08 21.51 149.08 21.1921 149.08 21.0861C149.08 21.0861 149.08 20.9802 148.974 20.9802H146.643C146.643 20.9802 146.537 20.9802 146.537 21.0861C146.537 22.7817 146.961 23.6295 148.126 24.4773C149.187 25.3251 150.352 25.643 151.517 25.643C154.697 25.643 156.286 23.8414 156.604 22.0399C156.922 20.2383 156.393 18.6487 154.803 17.589Z" fill="white"/>
<path d="M174.832 25.1131L166.883 16.9531V16.8471L174.09 9.42892C174.196 9.32292 174.09 9.32292 173.984 9.32292H171.017C171.017 9.32292 171.017 9.32292 170.911 9.32292L164.87 15.5755C164.764 15.6814 164.764 15.5755 164.764 15.4695V9.32292C164.764 9.32292 164.764 9.21698 164.658 9.21698H162.327C162.327 9.21698 162.221 9.21698 162.221 9.32292V25.2191C162.221 25.2191 162.221 25.3251 162.327 25.3251H164.658C164.658 25.3251 164.764 25.3251 164.764 25.2191V18.2248C164.764 18.1188 164.87 18.1188 164.87 18.1188L171.759 25.2191C171.759 25.2191 171.759 25.2191 171.864 25.2191H174.832C174.832 25.2191 174.937 25.1131 174.832 25.1131Z" fill="white"/>
</g>
<defs>
<clipPath id="clip0_114_2134">
<rect width="174.834" height="33.17" fill="white" transform="translate(0.528229 0.845001)"/>
</clipPath>
</defs>
</svg>
