<svg width="41" height="41" viewBox="0 0 41 41" fill="none" xmlns="http://www.w3.org/2000/svg">
<g opacity="0.2">
<g clip-path="url(#clip0_114_2107)">
<path fill-rule="evenodd" clip-rule="evenodd" d="M20.5559 38.0313C30.3285 38.0313 38.2506 30.1092 38.2506 20.3367C38.2506 10.5642 30.3285 2.64201 20.5559 2.64201C10.7835 2.64201 2.86128 10.5642 2.86128 20.3367C2.86128 30.1092 10.7835 38.0313 20.5559 38.0313ZM20.5559 40.0826C31.4614 40.0826 40.3019 31.2421 40.3019 20.3367C40.3019 9.43129 31.4614 0.590729 20.5559 0.590729C9.65056 0.590729 0.809998 9.43129 0.809998 20.3367C0.809998 31.2421 9.65056 40.0826 20.5559 40.0826Z" fill="#1F2128"/>
<path fill-rule="evenodd" clip-rule="evenodd" d="M20.5559 38.0313C30.3285 38.0313 38.2506 30.1092 38.2506 20.3367C38.2506 10.5642 30.3285 2.64201 20.5559 2.64201C10.7835 2.64201 2.86128 10.5642 2.86128 20.3367C2.86128 30.1092 10.7835 38.0313 20.5559 38.0313ZM20.5559 40.0826C31.4614 40.0826 40.3019 31.2421 40.3019 20.3367C40.3019 9.43129 31.4614 0.590729 20.5559 0.590729C9.65056 0.590729 0.809998 9.43129 0.809998 20.3367C0.809998 31.2421 9.65056 40.0826 20.5559 40.0826Z" fill="white" fill-opacity="0.45"/>
</g>
</g>
<defs>
<clipPath id="clip0_114_2107">
<rect width="40" height="40" fill="white" transform="translate(0.809998 0.410004)"/>
</clipPath>
</defs>
</svg>
