<svg width="130" height="4" viewBox="0 0 130 4" fill="none" xmlns="http://www.w3.org/2000/svg">
<path d="M128.5 3.36L130 3.36L130 0.359997L128.5 0.359997L128.5 3.36ZM11.1667 3.35999C11.9951 3.35999 12.6667 2.68841 12.6667 1.85999C12.6667 1.03156 11.9951 0.359986 11.1667 0.359986L11.1667 3.35999ZM32.5 0.359988C31.6716 0.359988 31 1.03156 31 1.85999C31 2.68842 31.6716 3.35999 32.5 3.35999L32.5 0.359988ZM53.8333 3.35999C54.6618 3.35999 55.3333 2.68842 55.3333 1.85999C55.3333 1.03156 54.6618 0.35999 53.8333 0.35999L53.8333 3.35999ZM75.1667 0.359992C74.3382 0.359992 73.6667 1.03156 73.6667 1.85999C73.6667 2.68842 74.3382 3.35999 75.1667 3.35999L75.1667 0.359992ZM96.5 3.35999C97.3284 3.35999 98 2.68842 98 1.85999C98 1.03157 97.3284 0.359994 96.5 0.359994L96.5 3.35999ZM117.833 0.359996C117.005 0.359996 116.333 1.03157 116.333 1.86C116.333 2.68842 117.005 3.36 117.833 3.36L117.833 0.359996ZM0.5 3.35999L11.1667 3.35999L11.1667 0.359986L0.5 0.359985L0.5 3.35999ZM32.5 3.35999L53.8333 3.35999L53.8333 0.35999L32.5 0.359988L32.5 3.35999ZM75.1667 3.35999L96.5 3.35999L96.5 0.359994L75.1667 0.359992L75.1667 3.35999ZM117.833 3.36L128.5 3.36L128.5 0.359997L117.833 0.359996L117.833 3.36Z" fill="white" fill-opacity="0.5"/>
</svg>
