<svg width="24" height="23" viewBox="0 0 24 23" fill="none" xmlns="http://www.w3.org/2000/svg">
<path fill-rule="evenodd" clip-rule="evenodd" d="M16.6159 1.93677L16.6792 1.95402C17.7333 2.23672 18.568 2.46002 19.2245 2.69768C19.8963 2.94014 20.4445 3.2171 20.8958 3.63972C21.5528 4.25548 22.0123 5.05222 22.2164 5.92918C22.3573 6.53102 22.3238 7.14435 22.1973 7.84681C22.0755 8.53489 21.8523 9.3696 21.5695 10.4228L21.0559 12.3385C20.7741 13.3917 20.5499 14.2264 20.3132 14.8829C20.0698 15.5547 19.7928 16.1028 19.3702 16.5542C18.7745 17.1902 18.0089 17.6419 17.1641 17.8556C16.9166 18.4231 16.5559 18.9341 16.1042 19.3573C15.6528 19.78 15.1046 20.0569 14.4328 20.3004C13.7764 20.538 12.9417 20.7613 11.8885 21.044L11.8243 21.0613C10.7701 21.343 9.93634 21.5663 9.24825 21.6899C8.5458 21.8155 7.93246 21.849 7.32967 21.7091C6.45283 21.5043 5.65641 21.0441 5.04117 20.3866C4.6195 19.9362 4.34159 19.388 4.09817 18.7162C3.86146 18.0598 3.63817 17.2251 3.35546 16.1709L2.8418 14.2561C2.56005 13.202 2.3358 12.3682 2.21313 11.6801C2.08759 10.9777 2.05405 10.3643 2.19396 9.76156C2.39875 8.88471 2.85899 8.0883 3.51646 7.47306C3.96688 7.05139 4.51505 6.77347 5.18684 6.53006C5.8433 6.29335 6.678 6.07006 7.73121 5.78735L7.7638 5.77777L8.4835 5.5861C8.85917 4.24539 9.18884 3.2976 9.83284 2.61047C10.4482 1.95335 11.2446 1.49346 12.1213 1.28893C12.7241 1.14902 13.3365 1.18256 14.0399 1.3081C14.727 1.43077 15.5618 1.65502 16.6159 1.93677ZM8.04938 7.19035C7.00192 7.47114 6.25155 7.67431 5.67463 7.88227C5.09005 8.0931 4.74792 8.2886 4.49875 8.52243C4.04896 8.94344 3.73413 9.48839 3.59409 10.0883C3.51742 10.4218 3.51838 10.8167 3.62859 11.4271C3.7388 12.0472 3.94675 12.8234 4.23905 13.9159L4.73546 15.7674C5.02775 16.8599 5.23667 17.6362 5.45038 18.2275C5.66121 18.8121 5.85671 19.1551 6.09055 19.4043C6.51155 19.8541 7.0565 20.1689 7.65646 20.309C7.989 20.3856 8.3848 20.3837 8.99525 20.2745C9.6153 20.1643 10.3915 19.9563 11.484 19.664C12.5765 19.3708 13.3528 19.1628 13.945 18.9481C14.5287 18.7373 14.8718 18.5418 15.1209 18.3089C15.2532 18.1843 15.373 18.0502 15.4813 17.9074C15.3035 17.882 15.1264 17.8516 14.9503 17.8163C14.3063 17.6879 13.532 17.4809 12.5785 17.2251L12.5229 17.2107C11.4697 16.928 10.635 16.7047 9.9785 16.467C9.30671 16.2246 8.75855 15.9476 8.30717 15.525C7.64989 14.9093 7.18998 14.1126 6.98563 13.2355C6.84571 12.6337 6.87925 12.0203 7.0048 11.3169C7.12746 10.6298 7.35171 9.7951 7.63346 8.74189L8.04938 7.19035ZM13.7869 2.72356C13.1755 2.61335 12.7807 2.61143 12.4481 2.68906C11.8482 2.8291 11.3032 3.14393 10.8822 3.59372C10.4644 4.03935 10.2066 4.72935 9.76 6.36618C9.68717 6.6326 9.6105 6.91914 9.52713 7.2306L9.03071 9.0821C8.73842 10.1746 8.53046 10.9508 8.42025 11.5709C8.31005 12.1813 8.30813 12.5771 8.38575 12.9097C8.5258 13.5096 8.84063 14.0546 9.29042 14.4756C9.53959 14.7094 9.88267 14.904 10.4663 15.1158C11.0585 15.3295 11.8348 15.5374 12.9273 15.8307C13.9096 16.0942 14.6379 16.2888 15.2302 16.4057C15.8195 16.5236 16.2201 16.5523 16.5479 16.5121C16.6198 16.5025 16.6878 16.491 16.7549 16.4756C17.3548 16.3356 17.8998 16.0208 18.3208 15.571C18.5546 15.3218 18.7501 14.9787 18.961 14.3951C19.1747 13.8028 19.3826 13.0266 19.6759 11.9341L20.1723 10.0826C20.4646 8.9901 20.6725 8.21385 20.7828 7.59381C20.892 6.98335 20.8949 6.58756 20.8173 6.25502C20.6772 5.65506 20.3624 5.11011 19.9126 4.6891C19.6634 4.45527 19.3203 4.26072 18.7367 4.04893C18.1435 3.83522 17.3682 3.62727 16.2757 3.33402C15.1832 3.04172 14.407 2.83377 13.7869 2.72356ZM11.4965 9.39739C11.521 9.3062 11.5632 9.22073 11.6207 9.14584C11.6782 9.07096 11.7498 9.00815 11.8316 8.96098C11.9134 8.91381 12.0037 8.88322 12.0973 8.87095C12.1909 8.85868 12.286 8.86498 12.3772 8.88947L17.006 10.1296C17.185 10.1834 17.336 10.3048 17.4269 10.4682C17.5179 10.6315 17.5416 10.8238 17.4931 11.0043C17.4446 11.1849 17.3277 11.3394 17.1672 11.4352C17.0066 11.5309 16.8151 11.5604 16.6332 11.5172L12.0044 10.2771C11.8205 10.2277 11.6637 10.1073 11.5684 9.94237C11.4732 9.77741 11.4473 9.5814 11.4965 9.39739ZM10.7519 12.1746C10.7763 12.0833 10.8186 11.9978 10.8761 11.9228C10.9337 11.8479 11.0055 11.785 11.0874 11.7378C11.1693 11.6906 11.2597 11.6601 11.3534 11.6479C11.4471 11.6357 11.5423 11.6421 11.6335 11.6667L14.4098 12.4104C14.594 12.4597 14.751 12.5801 14.8463 12.7452C14.9417 12.9103 14.9675 13.1065 14.9182 13.2906C14.8689 13.4748 14.7485 13.6318 14.5834 13.7271C14.4183 13.8225 14.2221 13.8483 14.038 13.799L11.2608 13.0544C11.0768 13.005 10.92 12.8846 10.8248 12.7196C10.7295 12.5547 10.7037 12.3587 10.7528 12.1746H10.7519Z" fill="#FCFCFC"/>
</svg>
