<svg width="21" height="20" viewBox="0 0 21 20" fill="none" xmlns="http://www.w3.org/2000/svg">
<path d="M18.7568 10.66C18.5965 10.4775 18.5081 10.2429 18.5081 10C18.5081 9.75711 18.5965 9.52251 18.7568 9.34002L20.0368 7.90002C20.1779 7.74269 20.2655 7.54472 20.287 7.33452C20.3086 7.12433 20.263 6.9127 20.1568 6.73002L18.1568 3.27002C18.0517 3.08754 17.8917 2.94289 17.6996 2.8567C17.5074 2.77051 17.293 2.74718 17.0868 2.79002L15.2068 3.17002C14.9676 3.21945 14.7186 3.17961 14.5067 3.05802C14.2949 2.93643 14.1348 2.7415 14.0568 2.51002L13.4468 0.680017C13.3797 0.481396 13.2519 0.308882 13.0815 0.186859C12.911 0.0648361 12.7065 -0.000523977 12.4968 1.71846e-05H8.49683C8.27876 -0.0113649 8.06296 0.0489435 7.88239 0.171731C7.70182 0.294519 7.56641 0.473036 7.49683 0.680017L6.93683 2.51002C6.85883 2.7415 6.6988 2.93643 6.48694 3.05802C6.27508 3.17961 6.02605 3.21945 5.78683 3.17002L3.85683 2.79002C3.66138 2.7624 3.46213 2.79324 3.28418 2.87866C3.10622 2.96407 2.95753 3.10025 2.85683 3.27002L0.85683 6.73002C0.74799 6.91067 0.699052 7.1211 0.717012 7.33124C0.734973 7.54138 0.818912 7.74046 0.95683 7.90002L2.22683 9.34002C2.38715 9.52251 2.47556 9.75711 2.47556 10C2.47556 10.2429 2.38715 10.4775 2.22683 10.66L0.95683 12.1C0.818912 12.2596 0.734973 12.4587 0.717012 12.6688C0.699052 12.8789 0.74799 13.0894 0.85683 13.27L2.85683 16.73C2.96193 16.9125 3.12195 17.0571 3.31408 17.1433C3.50622 17.2295 3.72065 17.2529 3.92683 17.21L5.80683 16.83C6.04605 16.7806 6.29508 16.8204 6.50694 16.942C6.7188 17.0636 6.87883 17.2585 6.95683 17.49L7.56683 19.32C7.63641 19.527 7.77183 19.7055 7.9524 19.8283C8.13297 19.9511 8.34876 20.0114 8.56683 20H12.5668C12.7765 20.0006 12.981 19.9352 13.1515 19.8132C13.3219 19.6912 13.4497 19.5186 13.5168 19.32L14.1268 17.49C14.2048 17.2585 14.3649 17.0636 14.5767 16.942C14.7886 16.8204 15.0376 16.7806 15.2768 16.83L17.1568 17.21C17.363 17.2529 17.5774 17.2295 17.7696 17.1433C17.9617 17.0571 18.1217 16.9125 18.2268 16.73L20.2268 13.27C20.333 13.0873 20.3786 12.8757 20.357 12.6655C20.3355 12.4553 20.2479 12.2573 20.1068 12.1L18.7568 10.66ZM17.2668 12L18.0668 12.9L16.7868 15.12L15.6068 14.88C14.8866 14.7328 14.1374 14.8551 13.5014 15.2238C12.8654 15.5925 12.387 16.1819 12.1568 16.88L11.7768 18H9.21683L8.85683 16.86C8.62668 16.1619 8.14821 15.5725 7.51223 15.2038C6.87626 14.8351 6.12705 14.7128 5.40683 14.86L4.22683 15.1L2.92683 12.89L3.72683 11.99C4.21878 11.44 4.49076 10.7279 4.49076 9.99002C4.49076 9.25208 4.21878 8.54004 3.72683 7.99002L2.92683 7.09002L4.20683 4.89002L5.38683 5.13002C6.10705 5.27724 6.85626 5.1549 7.49223 4.78622C8.12821 4.41753 8.60668 3.82818 8.83683 3.13002L9.21683 2.00002H11.7768L12.1568 3.14002C12.387 3.83818 12.8654 4.42753 13.5014 4.79622C14.1374 5.1649 14.8866 5.28724 15.6068 5.14002L16.7868 4.90002L18.0668 7.12002L17.2668 8.02002C16.7804 8.56878 16.5118 9.2767 16.5118 10.01C16.5118 10.7433 16.7804 11.4513 17.2668 12ZM10.4968 6.00002C9.7057 6.00002 8.93235 6.23461 8.27455 6.67414C7.61675 7.11366 7.10406 7.73838 6.80131 8.46928C6.49856 9.20019 6.41935 10.0045 6.57369 10.7804C6.72803 11.5563 7.10899 12.269 7.6684 12.8284C8.22781 13.3879 8.94055 13.7688 9.71647 13.9232C10.4924 14.0775 11.2967 13.9983 12.0276 13.6955C12.7585 13.3928 13.3832 12.8801 13.8227 12.2223C14.2622 11.5645 14.4968 10.7911 14.4968 10C14.4968 8.93915 14.0754 7.92174 13.3253 7.17159C12.5751 6.42144 11.5577 6.00002 10.4968 6.00002ZM10.4968 12C10.1013 12 9.71459 11.8827 9.38569 11.663C9.05679 11.4432 8.80045 11.1308 8.64907 10.7654C8.4977 10.3999 8.45809 9.9978 8.53526 9.60984C8.61243 9.22187 8.80291 8.86551 9.08262 8.5858C9.36232 8.3061 9.71869 8.11562 10.1066 8.03845C10.4946 7.96128 10.8967 8.00088 11.2622 8.15226C11.6276 8.30363 11.94 8.55998 12.1598 8.88888C12.3795 9.21778 12.4968 9.60445 12.4968 10C12.4968 10.5304 12.2861 11.0392 11.911 11.4142C11.536 11.7893 11.0273 12 10.4968 12Z" fill="#A7A7CC"/>
</svg>
