<svg width="51" height="51" viewBox="0 0 51 51" fill="none" xmlns="http://www.w3.org/2000/svg">
<g clip-path="url(#clip0_109_1415)">
<path d="M10.2005 7.69596C11.9909 6.49154 13.9277 5.57194 16.0111 4.93717C18.0944 4.30241 20.2103 3.98502 22.3587 3.98502C23.8236 3.98502 25.2559 4.13151 26.6556 4.42448C28.0553 4.68489 29.4144 5.0918 30.7327 5.64518C32.0511 6.19857 33.3125 6.86588 34.5169 7.64713C35.6888 8.46094 36.7956 9.37239 37.8372 10.3815C38.8464 11.4232 39.7578 12.5299 40.5716 13.7018C41.3529 14.9062 42.0202 16.1676 42.5736 17.486C43.127 18.8044 43.5339 20.1634 43.7943 21.5632C44.0872 22.9629 44.2337 24.3952 44.2337 25.86C44.2337 28.0085 43.9163 30.1243 43.2816 32.2077C42.6468 34.291 41.7272 36.2279 40.5228 38.0182C39.3509 39.8086 37.9268 41.3874 36.2503 42.7546C34.5739 44.1217 32.7266 45.2285 30.7083 46.0749C28.7227 46.8887 26.6556 47.4014 24.5072 47.613C22.3587 47.8245 20.2266 47.7188 18.1107 47.2956C15.9622 46.8724 13.9359 46.1562 12.0316 45.1471C10.1273 44.138 8.41016 42.8685 6.88021 41.3385C5.35026 39.8086 4.08073 38.0915 3.07161 36.1872C2.0625 34.2829 1.34635 32.2565 0.923177 30.1081C0.5 27.9922 0.394206 25.86 0.605794 23.7116C0.817383 21.5632 1.33008 19.4961 2.14388 17.5104C2.99023 15.4922 4.09701 13.6449 5.46419 11.9684C6.83138 10.292 8.41016 8.86784 10.2005 7.69596ZM11.9583 41.4362C13.4883 42.4779 15.1403 43.2673 16.9144 43.8044C18.6885 44.3415 20.5033 44.61 22.3587 44.61C24.8327 44.61 27.2253 44.138 29.5365 43.194C31.8477 42.25 33.8822 40.8991 35.64 39.1413C37.3978 37.3835 38.7487 35.349 39.6927 33.0378C40.6367 30.7266 41.1087 28.334 41.1087 25.86C41.1087 24.0046 40.8402 22.1898 40.3031 20.4157C39.766 18.6416 38.9766 16.9896 37.9349 15.4596C36.9258 13.8971 35.7051 12.5299 34.2728 11.3581C32.8405 10.1862 31.2617 9.24219 29.5365 8.52604C27.8112 7.80989 26.029 7.3623 24.1898 7.18327C22.3506 7.00423 20.5195 7.09375 18.6966 7.45182C16.8737 7.80989 15.1484 8.42838 13.5208 9.30729C11.8932 10.1862 10.4121 11.2767 9.07747 12.5788C7.77539 13.9134 6.6849 15.3945 5.80599 17.0221C4.92708 18.6497 4.30859 20.375 3.95052 22.1979C3.59245 24.0208 3.50293 25.8519 3.68197 27.6911C3.861 29.5303 4.30859 31.3125 5.02474 33.0378C5.74089 34.763 6.6849 36.3418 7.85677 37.7741C9.02865 39.2064 10.3958 40.4271 11.9583 41.4362ZM11.4212 26.4948L19.2337 34.3073L33.2962 20.2448L31.099 18.0475L19.2337 29.9128L13.6185 24.2975L11.4212 26.4948Z" fill="url(#paint0_linear_109_1415)"/>
</g>
<defs>
<linearGradient id="paint0_linear_109_1415" x1="0.5" y1="3.98502" x2="51.6335" y2="35.8409" gradientUnits="userSpaceOnUse">
<stop stop-color="#2600FC"/>
<stop offset="1" stop-color="#FF00EA"/>
</linearGradient>
<clipPath id="clip0_109_1415">
<rect width="50" height="50" fill="white" transform="matrix(1 0 0 -1 0.5 50.86)"/>
</clipPath>
</defs>
</svg>
