<svg width="45" height="45" viewBox="0 0 45 45" fill="none" xmlns="http://www.w3.org/2000/svg">
<path d="M13.3418 12.4108C12.821 12.7688 12.2676 13.0374 11.6816 13.2164C11.0957 13.3955 10.4935 13.485 9.875 13.485C9.0612 13.485 8.26367 13.3304 7.48242 13.0211C6.70117 12.7119 6.01758 12.2643 5.43164 11.6783C4.8457 11.0924 4.39811 10.4088 4.08887 9.62756C3.77962 8.84631 3.625 8.04879 3.625 7.23499C3.625 6.6165 3.71452 6.01428 3.89355 5.42834C4.07259 4.84241 4.34115 4.28902 4.69922 3.76819C5.02474 3.24736 5.4235 2.79163 5.89551 2.401C6.36751 2.01038 6.89648 1.70113 7.48242 1.47327C8.06836 1.21285 8.66243 1.05823 9.26465 1.0094C9.86686 0.960571 10.4772 0.984985 11.0957 1.08264C11.7142 1.21285 12.292 1.42444 12.8291 1.71741C13.3662 2.01038 13.8626 2.36845 14.3184 2.79163C14.7415 3.24736 15.0996 3.74377 15.3926 4.28088C15.6855 4.81799 15.8971 5.39579 16.0273 6.01428C16.125 6.63277 16.1494 7.24312 16.1006 7.84534C16.0518 8.44755 15.8971 9.04163 15.6367 9.62756C15.4089 10.2135 15.0996 10.7425 14.709 11.2145C14.3184 11.6865 13.8626 12.0852 13.3418 12.4108ZM11.6328 4.64709C11.3724 4.48433 11.0876 4.35413 10.7783 4.25647C10.4691 4.15881 10.168 4.10999 9.875 4.10999C9.45182 4.10999 9.05306 4.19136 8.67871 4.35413C8.30436 4.51689 7.9707 4.74475 7.67773 5.03772C7.38477 5.33069 7.1569 5.66435 6.99414 6.0387C6.83138 6.41304 6.75 6.81181 6.75 7.23499C6.75 7.52795 6.79883 7.82906 6.89648 8.13831C6.99414 8.44755 7.12435 8.73238 7.28711 8.9928C7.44987 9.22066 7.65332 9.43225 7.89746 9.62756C8.1416 9.82288 8.41016 9.98564 8.70312 10.1158C8.96354 10.2461 9.24837 10.3274 9.55762 10.36C9.86686 10.3925 10.168 10.3763 10.4609 10.3112C10.7865 10.2461 11.0876 10.1403 11.3643 9.99377C11.641 9.84729 11.877 9.66011 12.0723 9.43225C12.3001 9.23694 12.4873 9.00093 12.6338 8.72424C12.7803 8.44755 12.8861 8.14644 12.9512 7.82092C13.0163 7.52795 13.0326 7.22685 13 6.9176C12.9674 6.60836 12.8861 6.32353 12.7559 6.06311C12.6257 5.77014 12.4629 5.50159 12.2676 5.25745C12.0723 5.01331 11.8607 4.80986 11.6328 4.64709ZM34.875 16.61V15.0475C34.875 14.5267 34.8262 14.014 34.7285 13.5094C34.6309 13.0048 34.4844 12.5247 34.2891 12.069C34.0938 11.5807 33.8496 11.125 33.5566 10.7018C33.2637 10.2786 32.9382 9.88798 32.5801 9.52991C32.222 9.17183 31.8314 8.84631 31.4082 8.55334C30.985 8.26038 30.5293 8.01624 30.041 7.82092C29.5853 7.62561 29.1051 7.47913 28.6006 7.38147C28.096 7.28381 27.5833 7.23499 27.0625 7.23499H22.375V4.10999H27.0625C28.5273 4.10999 29.9271 4.38668 31.2617 4.94006C32.5964 5.49345 33.7682 6.29097 34.7773 7.33264C35.819 8.34175 36.6165 9.51363 37.1699 10.8483C37.7233 12.1829 38 13.5826 38 15.0475V16.61H34.875ZM6.75 29.11V30.6725C6.75 31.7142 6.94531 32.7151 7.33594 33.6754C7.72656 34.6357 8.29622 35.4739 9.04492 36.1901C9.76107 36.9388 10.5993 37.5084 11.5596 37.899C12.5199 38.2897 13.5208 38.485 14.5625 38.485H19.25V41.61H14.5625C13.0977 41.61 11.6979 41.3333 10.3633 40.7799C9.02865 40.2265 7.85677 39.429 6.84766 38.3873C5.80599 37.3782 5.00846 36.2063 4.45508 34.8717C3.90169 33.5371 3.625 32.1373 3.625 30.6725V29.11H6.75ZM14.5625 15.0475H5.1875C4.56901 15.0475 3.97493 15.1696 3.40527 15.4137C2.83561 15.6578 2.32292 15.9915 1.86719 16.4147C1.44401 16.8704 1.11035 17.3831 0.866211 17.9528C0.62207 18.5224 0.5 19.1165 0.5 19.735V22.86H3.625V19.735C3.625 19.5397 3.66569 19.3444 3.74707 19.149C3.82845 18.9537 3.93424 18.7747 4.06445 18.6119C4.22721 18.4817 4.40625 18.3759 4.60156 18.2946C4.79688 18.2132 4.99219 18.1725 5.1875 18.1725H14.5625C14.7578 18.1725 14.9531 18.2132 15.1484 18.2946C15.3438 18.3759 15.5228 18.4817 15.6855 18.6119C15.8158 18.7747 15.9215 18.9537 16.0029 19.149C16.0843 19.3444 16.125 19.5397 16.125 19.735V22.86H19.25V19.735C19.25 19.1165 19.1279 18.5224 18.8838 17.9528C18.6396 17.3831 18.306 16.8704 17.8828 16.4147C17.4271 15.9915 16.9144 15.6578 16.3447 15.4137C15.7751 15.1696 15.181 15.0475 14.5625 15.0475ZM30.1875 36.9225C29.569 36.9225 28.9749 37.0446 28.4053 37.2887C27.8356 37.5328 27.3229 37.8665 26.8672 38.2897C26.444 38.7454 26.1104 39.2581 25.8662 39.8278C25.6221 40.3974 25.5 40.9915 25.5 41.61V44.735H28.625V41.61C28.625 41.4147 28.6657 41.2194 28.7471 41.024C28.8285 40.8287 28.9342 40.6497 29.0645 40.4869C29.2272 40.3567 29.4062 40.2509 29.6016 40.1696C29.7969 40.0882 29.9922 40.0475 30.1875 40.0475H39.5625C39.7578 40.0475 39.9531 40.0882 40.1484 40.1696C40.3438 40.2509 40.5228 40.3567 40.6855 40.4869C40.8158 40.6497 40.9216 40.8287 41.0029 41.024C41.0843 41.2194 41.125 41.4147 41.125 41.61V44.735H44.25V41.61C44.25 40.9915 44.1279 40.3974 43.8838 39.8278C43.6396 39.2581 43.306 38.7454 42.8828 38.2897C42.4271 37.8665 41.9144 37.5328 41.3447 37.2887C40.7751 37.0446 40.181 36.9225 39.5625 36.9225H30.1875ZM29.6992 32.5768C29.3411 32.0559 29.0726 31.5026 28.8936 30.9166C28.7145 30.3307 28.625 29.7285 28.625 29.11C28.625 28.2962 28.7796 27.4987 29.0889 26.7174C29.3981 25.9362 29.8457 25.2526 30.4316 24.6666C31.0176 24.0807 31.7012 23.6331 32.4824 23.3239C33.2637 23.0146 34.0612 22.86 34.875 22.86C35.4935 22.86 36.0957 22.9495 36.6816 23.1285C37.2676 23.3076 37.821 23.5761 38.3418 23.9342C38.8626 24.2597 39.3184 24.6585 39.709 25.1305C40.0996 25.6025 40.4089 26.1315 40.6367 26.7174C40.8971 27.3033 41.0518 27.8974 41.1006 28.4996C41.1494 29.1018 41.125 29.7122 41.0273 30.3307C40.8971 30.9492 40.6855 31.527 40.3926 32.0641C40.0996 32.6012 39.7415 33.0976 39.3184 33.5533C38.8626 33.9765 38.3662 34.3346 37.8291 34.6276C37.292 34.9205 36.7142 35.1321 36.0957 35.2623C35.4772 35.36 34.8669 35.3844 34.2646 35.3356C33.6624 35.2867 33.0684 35.1321 32.4824 34.8717C31.8965 34.6438 31.3675 34.3346 30.8955 33.944C30.4235 33.5533 30.0247 33.0976 29.6992 32.5768ZM37.4629 30.8678C37.6257 30.6074 37.7559 30.3226 37.8535 30.0133C37.9512 29.7041 38 29.403 38 29.11C38 28.6868 37.9186 28.288 37.7559 27.9137C37.5931 27.5393 37.3652 27.2057 37.0723 26.9127C36.7793 26.6198 36.4456 26.3919 36.0713 26.2291C35.6969 26.0664 35.2982 25.985 34.875 25.985C34.582 25.985 34.2809 26.0338 33.9717 26.1315C33.6624 26.2291 33.3776 26.3593 33.1172 26.5221C32.8893 26.6849 32.6777 26.8883 32.4824 27.1324C32.2871 27.3766 32.1243 27.6451 31.9941 27.9381C31.8639 28.1985 31.7826 28.4834 31.75 28.7926C31.7174 29.1018 31.7337 29.403 31.7988 29.6959C31.8639 30.0214 31.9697 30.3226 32.1162 30.5992C32.2627 30.8759 32.4499 31.1119 32.6777 31.3073C32.873 31.5351 33.1091 31.7223 33.3857 31.8688C33.6624 32.0153 33.9635 32.1211 34.2891 32.1862C34.582 32.2513 34.8831 32.2675 35.1924 32.235C35.5016 32.2024 35.7865 32.1211 36.0469 31.9908C36.3398 31.8606 36.6084 31.6979 36.8525 31.5026C37.0967 31.3073 37.3001 31.0957 37.4629 30.8678Z" fill="url(#paint0_linear_109_1434)"/>
<defs>
<linearGradient id="paint0_linear_109_1434" x1="0.5" y1="0.984985" x2="51.6526" y2="32.8527" gradientUnits="userSpaceOnUse">
<stop stop-color="#2600FC"/>
<stop offset="1" stop-color="#FF00EA"/>
</linearGradient>
</defs>
</svg>
