<svg width="44" height="41" viewBox="0 0 44 41" fill="none" xmlns="http://www.w3.org/2000/svg">
<path d="M3.125 37.61H9.375V34.485H3.125V3.23499H14.9902L21.2402 9.48499H40.625V21.985H43.75V9.48499C43.75 9.06181 43.6686 8.66304 43.5059 8.2887C43.3431 7.91435 43.1152 7.58069 42.8223 7.28772C42.5293 6.99475 42.1956 6.76689 41.8213 6.60413C41.4469 6.44136 41.0482 6.35999 40.625 6.35999H22.5098L17.1875 1.03772C17.0573 0.874958 16.9027 0.736614 16.7236 0.622681C16.5446 0.508747 16.3574 0.419231 16.1621 0.354126C15.9668 0.25647 15.7715 0.191364 15.5762 0.158813C15.3809 0.126263 15.1855 0.109985 14.9902 0.109985H3.125C2.70182 0.109985 2.30306 0.191364 1.92871 0.354126C1.55436 0.516888 1.2207 0.744751 0.927734 1.03772C0.634766 1.33069 0.406901 1.66435 0.244141 2.0387C0.0813802 2.41304 0 2.81181 0 3.23499V34.485C0 34.9082 0.0813802 35.3069 0.244141 35.6813C0.406901 36.0556 0.634766 36.3893 0.927734 36.6823C1.2207 36.9752 1.55436 37.2031 1.92871 37.3658C2.30306 37.5286 2.70182 37.61 3.125 37.61ZM23.4375 26.6725H12.5V15.735H23.4375V26.6725ZM15.625 23.5475H20.3125V18.86H15.625V23.5475ZM23.4375 40.735H12.5V29.7975H23.4375V40.735ZM15.625 37.61H20.3125V32.9225H15.625V37.61ZM26.5625 26.6725H37.5V15.735H26.5625V26.6725ZM34.375 23.5475H29.6875V18.86H34.375V23.5475ZM37.5 40.735H26.5625V29.7975H37.5V40.735ZM29.6875 37.61H34.375V32.9225H29.6875V37.61Z" fill="url(#paint0_linear_109_1407)"/>
<defs>
<linearGradient id="paint0_linear_109_1407" x1="4.05265e-07" y1="0.109985" x2="48.9653" y2="32.9616" gradientUnits="userSpaceOnUse">
<stop stop-color="#2600FC"/>
<stop offset="1" stop-color="#FF00EA"/>
</linearGradient>
</defs>
</svg>
