<svg width="50" height="51" viewBox="0 0 50 51" fill="none" xmlns="http://www.w3.org/2000/svg">
<g clip-path="url(#clip0_109_1424)">
<path d="M26.5625 8.67249H31.25C31.6732 8.67249 32.0719 8.75386 32.4463 8.91663C32.8206 9.07939 33.1543 9.30725 33.4473 9.60022C33.7402 9.89319 33.9681 10.2268 34.1309 10.6012C34.2936 10.9755 34.375 11.3743 34.375 11.7975V19.61H31.25V11.7975H26.5625V16.485H7.8125V11.7975H3.125V44.61H17.1875V47.735H3.125C2.70182 47.735 2.30306 47.6536 1.92871 47.4908C1.55436 47.3281 1.2207 47.1002 0.927734 46.8073C0.634766 46.5143 0.406901 46.1806 0.244141 45.8063C0.0813802 45.4319 0 45.0332 0 44.61V11.7975C0 11.3743 0.0813802 10.9755 0.244141 10.6012C0.406901 10.2268 0.634766 9.89319 0.927734 9.60022C1.2207 9.30725 1.55436 9.07939 1.92871 8.91663C2.30306 8.75386 2.70182 8.67249 3.125 8.67249H7.8125V7.10999C7.8125 6.68681 7.89388 6.28804 8.05664 5.9137C8.2194 5.53935 8.44727 5.20569 8.74023 4.91272C9.0332 4.61975 9.36686 4.39189 9.74121 4.22913C10.1156 4.06636 10.5143 3.98499 10.9375 3.98499H23.4375C23.8607 3.98499 24.2594 4.06636 24.6338 4.22913C25.0081 4.39189 25.3418 4.61975 25.6348 4.91272C25.9277 5.20569 26.1556 5.53935 26.3184 5.9137C26.4811 6.28804 26.5625 6.68681 26.5625 7.10999V8.67249ZM10.9375 13.36H23.4375V7.10999H10.9375V13.36ZM37.9395 27.6178C38.2975 28.3014 38.5742 29.0257 38.7695 29.7906C38.9648 30.5556 39.0625 31.3287 39.0625 32.11C39.0625 32.761 38.9974 33.4121 38.8672 34.0631C38.737 34.7142 38.5254 35.3326 38.2324 35.9186C37.972 36.5371 37.6465 37.1067 37.2559 37.6276C36.8652 38.1484 36.4258 38.6367 35.9375 39.0924V50.86L29.6875 47.8815L23.4375 50.86V39.0924C22.8516 38.5716 22.3389 37.9856 21.8994 37.3346C21.46 36.6836 21.11 35.9837 20.8496 35.235C20.5892 34.5188 20.4264 33.7701 20.3613 32.9889C20.2962 32.2076 20.3125 31.4264 20.4102 30.6451C20.5404 29.8639 20.7601 29.1152 21.0693 28.399C21.3786 27.6829 21.7773 27.0156 22.2656 26.3971C22.7214 25.7786 23.2585 25.2252 23.877 24.7369C24.4954 24.2487 25.1628 23.8418 25.8789 23.5162C26.5951 23.1907 27.3356 22.9629 28.1006 22.8326C28.8656 22.7024 29.6387 22.6699 30.4199 22.735C31.2012 22.8001 31.9661 22.9629 32.7148 23.2233C33.4635 23.4837 34.1634 23.8255 34.8145 24.2487C35.4655 24.6718 36.0514 25.1683 36.5723 25.7379C37.0931 26.3076 37.5488 26.9342 37.9395 27.6178ZM29.6875 44.4635L32.8125 45.9283V40.9479C31.8034 41.3059 30.7617 41.485 29.6875 41.485C28.6133 41.485 27.5716 41.3059 26.5625 40.9479V45.9283L29.6875 44.4635ZM26.2207 37.2858C26.7415 37.6438 27.2949 37.9124 27.8809 38.0914C28.4668 38.2705 29.069 38.36 29.6875 38.36C30.5013 38.36 31.2907 38.1972 32.0557 37.8717C32.8206 37.5462 33.4961 37.0905 34.082 36.5045C34.668 35.9186 35.1237 35.2431 35.4492 34.4781C35.7747 33.7132 35.9375 32.9238 35.9375 32.11C35.9375 31.4915 35.848 30.8893 35.6689 30.3033C35.4899 29.7174 35.2214 29.164 34.8633 28.6432C34.5378 28.1224 34.139 27.6666 33.667 27.276C33.195 26.8854 32.666 26.5761 32.0801 26.3483C31.4941 26.0879 30.9001 25.9332 30.2979 25.8844C29.6956 25.8356 29.0853 25.86 28.4668 25.9576C27.8483 26.0879 27.2705 26.2994 26.7334 26.5924C26.1963 26.8854 25.6999 27.2597 25.2441 27.7155C24.821 28.1386 24.4629 28.6188 24.1699 29.1559C23.877 29.693 23.6654 30.2708 23.5352 30.8893C23.4375 31.5078 23.4131 32.1181 23.4619 32.7203C23.5107 33.3225 23.6654 33.9166 23.9258 34.5026C24.1536 35.0885 24.4629 35.6175 24.8535 36.0895C25.2441 36.5615 25.6999 36.9602 26.2207 37.2858Z" fill="url(#paint0_linear_109_1424)"/>
</g>
<defs>
<linearGradient id="paint0_linear_109_1424" x1="3.61844e-07" y1="3.98498" x2="49.9384" y2="29.9111" gradientUnits="userSpaceOnUse">
<stop stop-color="#2600FC"/>
<stop offset="1" stop-color="#FF00EA"/>
</linearGradient>
<clipPath id="clip0_109_1424">
<rect width="50" height="50" fill="white" transform="matrix(1 0 0 -1 0 50.86)"/>
</clipPath>
</defs>
</svg>
