<svg width="21" height="21" viewBox="0 0 21 21" fill="none" xmlns="http://www.w3.org/2000/svg">
<path fill-rule="evenodd" clip-rule="evenodd" d="M14.6159 0.936766L14.6792 0.954016C15.7333 1.23672 16.568 1.46002 17.2245 1.69768C17.8963 1.94014 18.4445 2.2171 18.8958 2.63972C19.5528 3.25548 20.0123 4.05222 20.2164 4.92918C20.3573 5.53102 20.3238 6.14435 20.1973 6.84681C20.0755 7.53489 19.8523 8.3696 19.5695 9.42281L19.0559 11.3385C18.7741 12.3917 18.5499 13.2264 18.3132 13.8829C18.0698 14.5547 17.7928 15.1028 17.3702 15.5542C16.7745 16.1902 16.0089 16.6419 15.1641 16.8556C14.9166 17.4231 14.5559 17.9341 14.1042 18.3573C13.6528 18.78 13.1046 19.0569 12.4328 19.3004C11.7764 19.538 10.9417 19.7613 9.88846 20.044L9.82425 20.0613C8.77009 20.343 7.93634 20.5663 7.24825 20.6899C6.5458 20.8155 5.93246 20.849 5.32967 20.7091C4.45283 20.5043 3.65641 20.0441 3.04117 19.3866C2.6195 18.9362 2.34159 18.388 2.09817 17.7162C1.86146 17.0598 1.63817 16.2251 1.35546 15.1709L0.841796 13.2561C0.560045 12.202 0.335796 11.3682 0.213129 10.6801C0.0875873 9.97768 0.0540456 9.36435 0.193962 8.76156C0.398751 7.88471 0.858989 7.0883 1.51646 6.47306C1.96688 6.05139 2.51505 5.77347 3.18684 5.53006C3.8433 5.29335 4.678 5.07006 5.73121 4.78735L5.7638 4.77777L6.4835 4.5861C6.85917 3.24539 7.18884 2.2976 7.83284 1.61047C8.44821 0.953353 9.24461 0.493455 10.1213 0.288933C10.7241 0.149016 11.3365 0.182558 12.0399 0.3081C12.727 0.430766 13.5618 0.655016 14.6159 0.936766ZM6.04938 6.19035C5.00192 6.47114 4.25155 6.67431 3.67463 6.88227C3.09005 7.0931 2.74792 7.2886 2.49875 7.52243C2.04896 7.94344 1.73413 8.48839 1.59409 9.08835C1.51742 9.42185 1.51838 9.81668 1.62859 10.4271C1.7388 11.0472 1.94675 11.8234 2.23905 12.9159L2.73546 14.7674C3.02775 15.8599 3.23667 16.6362 3.45038 17.2275C3.66121 17.8121 3.85671 18.1551 4.09055 18.4043C4.51155 18.8541 5.0565 19.1689 5.65646 19.309C5.989 19.3856 6.3848 19.3837 6.99525 19.2745C7.6153 19.1643 8.39155 18.9563 9.48405 18.664C10.5765 18.3708 11.3528 18.1628 11.945 17.9481C12.5287 17.7373 12.8718 17.5418 13.1209 17.3089C13.2532 17.1843 13.373 17.0502 13.4813 16.9074C13.3035 16.882 13.1264 16.8516 12.9503 16.8163C12.3063 16.6879 11.532 16.4809 10.5785 16.2251L10.5229 16.2107C9.46967 15.928 8.63496 15.7047 7.9785 15.467C7.30671 15.2246 6.75855 14.9476 6.30717 14.525C5.64989 13.9093 5.18998 13.1126 4.98563 12.2355C4.84571 11.6337 4.87925 11.0203 5.0048 10.3169C5.12746 9.62981 5.35171 8.7951 5.63346 7.74189L6.04938 6.19035ZM11.7869 1.72356C11.1755 1.61335 10.7807 1.61143 10.4481 1.68906C9.84817 1.8291 9.30322 2.14393 8.88221 2.59372C8.46438 3.03935 8.20659 3.72935 7.76 5.36618C7.68717 5.6326 7.6105 5.91914 7.52713 6.2306L7.03071 8.0821C6.73842 9.1746 6.53046 9.95085 6.42025 10.5709C6.31005 11.1813 6.30813 11.5771 6.38575 11.9097C6.5258 12.5096 6.84063 13.0546 7.29042 13.4756C7.53959 13.7094 7.88267 13.904 8.4663 14.1158C9.05855 14.3295 9.83479 14.5374 10.9273 14.8307C11.9096 15.0942 12.6379 15.2888 13.2302 15.4057C13.8195 15.5236 14.2201 15.5523 14.5479 15.5121C14.6198 15.5025 14.6878 15.491 14.7549 15.4756C15.3548 15.3356 15.8998 15.0208 16.3208 14.571C16.5546 14.3218 16.7501 13.9787 16.961 13.3951C17.1747 12.8028 17.3826 12.0266 17.6759 10.9341L18.1723 9.0826C18.4646 7.9901 18.6725 7.21385 18.7828 6.59381C18.892 5.98335 18.8949 5.58756 18.8173 5.25502C18.6772 4.65506 18.3624 4.11011 17.9126 3.6891C17.6634 3.45527 17.3203 3.26072 16.7367 3.04893C16.1435 2.83522 15.3682 2.62727 14.2757 2.33402C13.1832 2.04172 12.407 1.83377 11.7869 1.72356ZM9.4965 8.39739C9.52096 8.3062 9.56315 8.22073 9.62065 8.14584C9.67816 8.07096 9.74985 8.00815 9.83163 7.96098C9.91342 7.91381 10.0037 7.88322 10.0973 7.87095C10.1909 7.85868 10.286 7.86498 10.3772 7.88947L15.006 9.12956C15.185 9.18338 15.336 9.30484 15.4269 9.46816C15.5179 9.63148 15.5416 9.82381 15.4931 10.0043C15.4446 10.1849 15.3277 10.3394 15.1672 10.4352C15.0066 10.5309 14.8151 10.5604 14.6332 10.5172L10.0044 9.27714C9.82047 9.22773 9.66365 9.10732 9.56842 8.94237C9.47318 8.77741 9.44732 8.5814 9.4965 8.39739ZM8.75188 11.1746C8.77633 11.0833 8.81855 10.9978 8.87612 10.9228C8.93369 10.8479 9.00547 10.785 9.08737 10.7378C9.16926 10.6906 9.25965 10.6601 9.35338 10.6479C9.4471 10.6357 9.5423 10.6421 9.63354 10.6667L12.4098 11.4104C12.594 11.4597 12.751 11.5801 12.8463 11.7452C12.9417 11.9103 12.9675 12.1065 12.9182 12.2906C12.8689 12.4748 12.7485 12.6318 12.5834 12.7271C12.4183 12.8225 12.2221 12.8483 12.038 12.799L9.26075 12.0544C9.0768 12.005 8.91999 11.8846 8.82475 11.7196C8.72952 11.5547 8.70365 11.3587 8.75284 11.1746H8.75188Z" fill="#FCFCFC"/>
</svg>
